<?xml version="1.0" encoding="UTF-8" standalone="no"?>
<svg xmlns="http://www.w3.org/2000/svg" aria-label="slash-2" viewBox="0 0 1024 1024">
  <path d="M938.668 448c0 0-132.752 133.356-213.158 213.256h-195.396c0 0 59.365-59.259 127.332-126.967 27.101-26.995 65.114-64.874 86.689-86.289h194.534zM716.518 448h-194.534c-0.036 0.036-0.071 0.071-0.098 0.098h-430.617c-2.808 0-5.936 0.195-5.936 1.582 0 1.982 5.625 2.666 15.79 3.128 271.395 12.191 349.065 20.322 349.065 54.469 0 6.771-0.302 12.413-14.892 27.004 0.009 0 0.018-0.009 0.027-0.009-0.009 0.009-0.018 0.009-0.027 0.018-67.966 67.709-127.323 126.967-127.323 126.967h195.387c80.406-79.9 213.158-213.256 213.158-213.256z"></path>
</svg>