<?xml version="1.0" encoding="UTF-8" standalone="no"?>
<svg xmlns="http://www.w3.org/2000/svg" aria-label="slash-3" viewBox="0 0 1024 1024">
  <path d="M938.667 448c0 0-132.752 133.356-213.158 213.256h-195.395c59.365-59.258 59.365-59.258 127.331-126.967 27.101-26.995 65.114-64.874 86.688-86.289h194.534zM716.517 448h-194.534c-21.574 21.414-59.587 59.294-86.688 86.289-67.966 67.709-127.322 126.967-127.322 126.967h195.387c80.406-79.9 213.158-213.256 213.158-213.256zM494.366 448h-194.534c-0.036 0.036-0.071 0.071-0.098 0.098h-208.466c-2.808 0-5.936 0.195-5.936 1.582 0 1.981 5.66 2.159 15.79 3.128 113.088 10.814 137.603 19.14 137.603 41.718 0 10.201-3.608 17.78-25.582 39.754 0.009 0 0.018-0.009 0.018-0.009 0 0.009-0.009 0.009-0.018 0.018-67.966 67.709-127.322 126.967-127.322 126.967h195.387c80.406-79.9 213.158-213.256 213.158-213.256z"></path>
</svg>